<svg height="512pt" viewBox="-4 0 512 512.0107" width="512pt" xmlns="http://www.w3.org/2000/svg"><path d="m162.140625 315.734375v51.199219c-.03125 9.414062-7.652344 17.039062-17.066406 17.066406-4.527344.023438-8.871094-1.792969-12.035157-5.035156-.253906-.253906-.511718-.597656-.765624-.851563-2.777344-3.058593-4.300782-7.050781-4.265626-11.179687v34.132812h-85.335937v-34.132812c-.003906 6.09375-3.261719 11.722656-8.539063 14.765625-5.28125 3.046875-11.78125 3.042969-17.058593-.003907-1.292969-.738281-2.472657-1.65625-3.5-2.730468-.257813-.253906-.511719-.597656-.769531-.851563-2.777344-3.058593-4.300782-7.050781-4.265626-11.179687v-51.199219c0-14.140625 11.460938-25.601563 25.601563-25.601563h102.398437c14.140626 0 25.601563 11.460938 25.601563 25.601563zm0 0" fill="#ad1457"/><path d="m136.539062 315.734375v51.199219c-.007812 4.121094-1.523437 8.101562-4.265624 11.179687-1.195313 1.4375-2.640626 2.652344-4.265626 3.582031-2.59375 1.503907-5.539062 2.300782-8.535156 2.304688-9.398437-.070312-16.996094-7.671875-17.066406-17.066406v34.132812h-59.734375v-34.132812c-.003906 6.09375-3.261719 11.722656-8.539063 14.765625-5.28125 3.046875-11.78125 3.042969-17.058593-.003907v-14.761718c-.007813 4.121094-1.527344 8.101562-4.269531 11.179687-2.777344-3.058593-4.300782-7.050781-4.265626-11.179687v-51.199219c0-14.140625 11.460938-25.601563 25.601563-25.601563h76.796875c14.140625 0 25.601562 11.460938 25.601562 25.601563zm0 0" fill="#6a1b9a"/><path d="m128.007812 375.464844c-4.714843 0-8.535156-3.820313-8.535156-8.53125v-42.667969c0-4.710937 3.820313-8.53125 8.535156-8.53125 4.710938 0 8.53125 3.820313 8.53125 8.53125v42.667969c0 4.710937-3.820312 8.53125-8.53125 8.53125zm0 0" fill="#c03a2b"/><path d="m102.40625 401.066406h-59.734375v81.066406c.015625 4.613282 1.511719 9.101563 4.265625 12.800782 1.183594 1.621094 2.625 3.035156 4.269531 4.179687 6.109375 4.6875 14.289063 5.667969 21.332031 2.5625 2.460938-1.035156 4.695313-2.542969 6.570313-4.4375 3.835937-3.839843 6.0625-8.996093 6.230469-14.421875.1875 11.78125 9.890625 21.179688 21.675781 20.992188 11.78125-.1875 21.179687-9.894532 20.992187-21.675782v-81.066406zm0 0" fill="#2c3e50"/><path d="m102.40625 401.066406v81.066406c.011719 5.664063-2.230469 11.097657-6.230469 15.105469-.707031.71875-1.480469 1.375-2.304687 1.960938-5.171875-3.890625-8.308594-9.914063-8.53125-16.382813-.167969 5.425782-2.394532 10.582032-6.230469 14.421875-1.875 1.894531-4.109375 3.402344-6.570313 4.4375-7.042968 3.105469-15.222656 2.125-21.332031-2.5625-1.644531-1.144531-3.085937-2.558593-4.269531-4.179687-2.753906-3.699219-4.25-8.1875-4.265625-12.800782v-81.066406zm0 0" fill="#607d8b"/><path d="m85.339844 490.667969c-4.714844 0-8.535156-3.820313-8.535156-8.535157v-38.398437c0-4.714844 3.820312-8.535156 8.535156-8.535156 4.710937 0 8.53125 3.820312 8.53125 8.535156v38.398437c0 4.714844-3.820313 8.535157-8.53125 8.535157zm0 0" fill="#2c3e50"/><path d="m315.738281 375.464844v119.46875c0 4.710937-3.820312 8.53125-8.53125 8.53125h-17.066406c-4.714844 0-8.535156-3.820313-8.535156-8.53125v-119.46875zm0 0" fill="#607d8b"/><path d="m486.40625 34.132812v68.265626c0 14.140624-11.460938 25.601562-25.601562 25.601562h-46.933594c-2.355469 0-4.265625 1.910156-4.265625 4.265625v21.335937c-.015625 1.445313-.429688 2.863282-1.195313 4.09375-.667968 1.320313-1.703125 2.417969-2.984375 3.15625-3.578125 2.21875-8.242187 1.453126-10.921875-1.789062l-10.753906-12.117188-15.53125-17.496093c-.421875-.441407-.914062-.816407-1.449219-1.109375-.546875-.203125-1.125-.316406-1.707031-.339844h-177.324219c-14.117187-.050781-25.546875-11.484375-25.597656-25.601562v-68.265626c0-14.136718 11.460937-25.597656 25.597656-25.597656h273.066407c14.140624 0 25.601562 11.460938 25.601562 25.597656zm0 0" fill="#ffb301"/><path d="m460.804688 25.601562v68.265626c0 14.136718-11.460938 25.597656-25.597657 25.597656h-46.933593c-2.355469 0-4.265626 1.910156-4.265626 4.269531v21.332031c.003907.636719-.082031 1.265625-.257812 1.878906l-15.53125-17.496093c-.421875-.441407-.914062-.816407-1.449219-1.109375-.546875-.203125-1.125-.316406-1.707031-.339844h-16.128906l-6.3125-7.082031c-.425782-.441407-.914063-.816407-1.453125-1.109375-.546875-.203125-1.121094-.320313-1.707031-.34375h-170.75c-4.242188-4.667969-6.585938-10.753906-6.570313-17.066406v-68.265626c0-14.136718 11.460937-25.597656 25.597656-25.597656h266.496094c4.242187 4.667969 6.585937 10.753906 6.570313 17.066406zm0 0" fill="#fdd834"/><path d="m85.339844 490.667969c-4.714844 0-8.535156-3.820313-8.535156-8.535157v-38.398437c0-4.714844 3.820312-8.535156 8.535156-8.535156 4.710937 0 8.53125 3.820312 8.53125 8.535156v38.398437c0 4.714844-3.820313 8.535157-8.53125 8.535157zm0 0" fill="#2c2f38"/><path d="m238.9375 315.734375v51.199219c-.027344 9.414062-7.652344 17.039062-17.066406 17.066406-4.527344.023438-8.867188-1.792969-12.03125-5.035156-.253906-.253906-.511719-.597656-.765625-.851563-2.777344-3.058593-4.300781-7.050781-4.269531-11.179687v34.132812h-85.332032v-34.132812c-.007812 6.09375-3.261718 11.722656-8.539062 14.765625-5.28125 3.046875-11.78125 3.042969-17.0625-.003907-1.289063-.738281-2.46875-1.65625-3.496094-2.730468-.257812-.253906-.511719-.597656-.769531-.851563-2.777344-3.058593-4.300781-7.050781-4.265625-11.179687v-51.199219c0-14.140625 11.460937-25.601563 25.597656-25.601563h102.402344c14.136718 0 25.597656 11.460938 25.597656 25.601563zm0 0" fill="#ad1457"/><path d="m213.339844 315.734375v51.199219c-.007813 4.121094-1.523438 8.101562-4.265625 11.179687-1.199219 1.4375-2.644531 2.652344-4.269531 3.582031-2.589844 1.503907-5.535157 2.300782-8.53125 2.304688-9.398438-.070312-16.996094-7.671875-17.066407-17.066406v34.132812h-59.734375v-34.132812c-.007812 6.09375-3.261718 11.722656-8.539062 14.765625-5.28125 3.046875-11.78125 3.042969-17.0625-.003907v-14.761718c-.003906 4.121094-1.523438 8.101562-4.265625 11.179687-2.777344-3.058593-4.300781-7.050781-4.265625-11.179687v-51.199219c0-14.140625 11.460937-25.601563 25.597656-25.601563h76.800781c14.140625 0 25.601563 11.460938 25.601563 25.601563zm0 0" fill="#e91e63"/><path d="m179.207031 401.066406h-59.734375v81.066406c.015625 4.613282 1.511719 9.101563 4.265625 12.800782 1.179688 1.621094 2.621094 3.035156 4.269531 4.179687 6.109376 4.6875 14.285157 5.667969 21.332032 2.5625 2.460937-1.035156 4.691406-2.542969 6.570312-4.4375 3.835938-3.839843 6.0625-8.996093 6.230469-14.421875.1875 11.78125 9.890625 21.179688 21.671875 20.992188 11.785156-.1875 21.183594-9.894532 20.992188-21.675782v-81.066406zm0 0" fill="#2c3e50"/><path d="m179.207031 401.066406v81.066406c.007813 5.664063-2.230469 11.097657-6.230469 15.105469-.710937.71875-1.480468 1.375-2.304687 1.960938-5.171875-3.890625-8.308594-9.914063-8.53125-16.382813-.167969 5.425782-2.394531 10.582032-6.230469 14.421875-1.878906 1.894531-4.109375 3.402344-6.570312 4.4375-7.046875 3.105469-15.222656 2.125-21.332032-2.5625-1.648437-1.144531-3.089843-2.558593-4.269531-4.179687-2.753906-3.699219-4.25-8.1875-4.265625-12.800782v-81.066406zm0 0" fill="#607d8b"/><path d="m162.140625 490.667969c-4.714844 0-8.535156-3.820313-8.535156-8.535157v-38.398437c0-4.714844 3.820312-8.535156 8.535156-8.535156 4.710937 0 8.53125 3.820312 8.53125 8.535156v38.398437c0 4.714844-3.820313 8.535157-8.53125 8.535157zm0 0" fill="#2c3e50"/><path d="m477.871094 238.933594c0 23.5625-19.101563 42.667968-42.664063 42.667968-4.335937-.015624-8.644531-.648437-12.800781-1.878906-17.78125-5.632812-29.867188-22.136718-29.867188-40.789062s12.085938-35.15625 29.867188-40.789063c4.15625-1.234375 8.464844-1.863281 12.800781-1.878906 23.5625 0 42.664063 19.105469 42.664063 42.667969zm0 0" fill="#bfa885"/><path d="m452.273438 238.933594c0-22.527344-13.371094-40.789063-29.867188-40.789063s-29.867188 18.261719-29.867188 40.789063 13.371094 40.789062 29.867188 40.789062 29.867188-18.261718 29.867188-40.789062zm0 0" fill="#ffe0b2"/><path d="m204.804688 221.867188c0 11.316406-4.492188 22.167968-12.496094 30.167968-8 8.003906-18.851563 12.5-30.167969 12.5-4.335937-.015625-8.644531-.648437-12.800781-1.878906-17.785156-5.632812-29.867188-22.136719-29.867188-40.789062 0-18.652344 12.082032-35.15625 29.867188-40.789063 4.15625-1.234375 8.464844-1.863281 12.800781-1.878906 11.316406 0 22.167969 4.496093 30.167969 12.496093 8.003906 8.003907 12.496094 18.855469 12.496094 30.171876zm0 0" fill="#bfa885"/><path d="m179.207031 221.867188c0-22.527344-13.371093-40.789063-29.867187-40.789063s-29.867188 18.261719-29.867188 40.789063c0 22.527343 13.371094 40.789062 29.867188 40.789062s29.867187-18.261719 29.867187-40.789062zm0 0" fill="#ffe0b2"/><path d="m128.007812 221.867188c0 23.5625-19.105468 42.667968-42.667968 42.667968-4.335938-.015625-8.644532-.648437-12.800782-1.878906-17.78125-5.632812-29.867187-22.136719-29.867187-40.789062 0-18.652344 12.085937-35.15625 29.867187-40.789063 4.15625-1.234375 8.464844-1.863281 12.800782-1.878906 23.5625 0 42.667968 19.101562 42.667968 42.667969zm0 0" fill="#bfa885"/><path d="m102.40625 221.867188c0-22.527344-13.371094-40.789063-29.867188-40.789063-16.496093 0-29.867187 18.261719-29.867187 40.789063 0 22.527343 13.371094 40.789062 29.867187 40.789062 16.496094 0 29.867188-18.261719 29.867188-40.789062zm0 0" fill="#ffe0b2"/><path d="m281.605469 341.332031h85.332031c9.425781 0 17.070312 7.640625 17.070312 17.066407 0 9.425781-7.644531 17.066406-17.070312 17.066406h-85.332031c-9.425781 0-17.066407-7.640625-17.066407-17.066406 0-9.425782 7.640626-17.066407 17.066407-17.066407zm0 0" fill="#4527a0"/><path d="m281.605469 341.332031h59.734375c9.425781 0 17.066406 7.640625 17.066406 17.066407 0 9.425781-7.640625 17.066406-17.066406 17.066406h-59.734375c-9.425781 0-17.066407-7.640625-17.066407-17.066406 0-9.425782 7.640626-17.066407 17.066407-17.066407zm0 0" fill="#673ab7"/><path d="m460.804688 324.265625v76.800781c0 18.851563-15.28125 34.132813-34.132813 34.132813h-42.664063c-4.714843 0-8.535156 3.820312-8.535156 8.535156v41.710937c.175782 9.078126-6.542968 16.816407-15.554687 17.917969-4.757813.390625-9.464844-1.214843-12.988281-4.433593-3.523438-3.21875-5.550782-7.757813-5.589844-12.53125v-51.199219c0-18.851563 15.28125-34.132813 34.132812-34.132813h25.601563c4.710937 0 8.53125-3.820312 8.53125-8.53125v-68.269531c.027343-9.414063 7.652343-17.039063 17.066406-17.066406h17.066406c9.414063.027343 17.039063 7.652343 17.066407 17.066406zm0 0" fill="#607d8b"/><path d="m85.339844 273.066406c14.730468.050782 28.757812-6.296875 38.441406-17.398437 14.070312 16.003906 36.578125 21.625 56.519531 14.105469 19.941407-7.515626 33.136719-26.597657 33.136719-47.90625 0-21.308594-13.195312-40.390626-33.136719-47.910157-19.941406-7.515625-42.449219-1.898437-56.519531 14.109375-15.570312-17.714844-41.226562-22.503906-62.136719-11.59375-20.910156 10.90625-31.664062 34.6875-26.046875 57.589844 5.621094 22.90625 26.15625 39.011719 49.742188 39.003906zm76.800781-85.332031c18.851563 0 34.132813 15.28125 34.132813 34.132813 0 18.851562-15.28125 34.132812-34.132813 34.132812s-34.132813-15.28125-34.132813-34.132812c0-18.851563 15.28125-34.132813 34.132813-34.132813zm-76.800781 0c11.796875-.039063 22.761718 6.078125 28.925781 16.136719-4.433594 11.585937-4.433594 24.40625 0 35.992187-6.164063 10.058594-17.128906 16.171875-28.925781 16.136719-18.851563 0-34.132813-15.28125-34.132813-34.132812 0-18.851563 15.28125-34.132813 34.132813-34.132813zm0 0"/><path d="m213.339844 281.601562h-179.199219c-18.851563 0-34.1328125 15.28125-34.1328125 34.132813v51.199219c-.0507813 6.753906 2.6406255 13.242187 7.4570315 17.980468 4.753906 4.90625 11.308594 7.660157 18.140625 7.621094 2.914062-.03125 5.800781-.5625 8.535156-1.570312v91.167968c-.019531 12.144532 7.332031 23.085938 18.578125 27.664063 11.25 4.578125 24.152344 1.878906 32.621094-6.824219 10.171875 10.472656 26.445312 12.011719 38.398437 3.625 11.945313 8.414063 28.242188 6.875 38.402344-3.625 8.46875 8.703125 21.367187 11.402344 32.617187 6.824219s18.597657-15.519531 18.582032-27.664063v-91.167968c2.730468 1.007812 5.621094 1.539062 8.53125 1.570312 14.140625 0 25.601562-11.464844 25.601562-25.601562v-51.199219c0-18.851563-15.28125-34.132813-34.132812-34.132813zm-187.734375 93.863282c-2.296875.003906-4.496094-.941406-6.074219-2.609375-1.59375-1.554688-2.480469-3.695313-2.457031-5.921875v-51.199219c0-9.425781 7.640625-17.066406 17.066406-17.066406h47.410156c-3.070312 5.164062-4.710937 11.054687-4.746093 17.066406v51.199219c0 14.136718 11.460937 25.601562 25.601562 25.601562 2.914062-.03125 5.800781-.5625 8.53125-1.570312v1.570312h-59.730469v-68.269531c0-4.710937-3.820312-8.53125-8.535156-8.53125-4.710937 0-8.53125 3.820313-8.53125 8.53125v42.667969c0 4.710937-3.820313 8.53125-8.535156 8.53125zm68.265625 106.667968v-38.398437c0-4.714844-3.820313-8.535156-8.53125-8.535156-4.714844 0-8.535156 3.820312-8.535156 8.535156v38.398437c0 7.070313-5.730469 12.800782-12.796876 12.800782-7.070312 0-12.800781-5.730469-12.800781-12.800782v-72.53125h59.730469v72.53125c.015625 3.777344.75 7.515626 2.167969 11.015626-3.945313 2.34375-8.847657 2.382812-12.828125.101562-3.984375-2.277344-6.429688-6.527344-6.40625-11.117188zm89.601562 12.800782c-7.070312 0-12.800781-5.730469-12.800781-12.800782v-38.398437c0-4.714844-3.820313-8.535156-8.53125-8.535156-4.714844 0-8.535156 3.820312-8.535156 8.535156v38.398437c0 7.070313-5.730469 12.800782-12.800781 12.800782-7.066407 0-12.796876-5.730469-12.796876-12.800782v-72.53125h68.265626v72.53125c0 7.070313-5.730469 12.800782-12.800782 12.800782zm46.933594-128c0 4.710937-3.820312 8.53125-8.535156 8.53125-4.710938 0-8.53125-3.820313-8.53125-8.53125v-42.667969c0-4.710937-3.820313-8.53125-8.535156-8.53125-4.710938 0-8.53125 3.820313-8.53125 8.53125v68.269531h-68.265626v-68.269531c0-4.710937-3.820312-8.53125-8.535156-8.53125-4.710937 0-8.535156 3.820313-8.535156 8.53125v42.667969c0 4.710937-3.820312 8.53125-8.53125 8.53125-4.714844 0-8.535156-3.820313-8.535156-8.53125v-51.199219c0-9.425781 7.644531-17.066406 17.066406-17.066406h102.402344c9.425781 0 17.066406 7.640625 17.066406 17.066406zm0 0"/><path d="m435.207031 187.734375c-28.277343 0-51.199219 22.921875-51.199219 51.199219s22.921876 51.199218 51.199219 51.199218c28.277344 0 51.199219-22.921874 51.199219-51.199218-.027344-28.265625-22.933594-51.171875-51.199219-51.199219zm0 85.332031c-18.851562 0-34.132812-15.28125-34.132812-34.132812 0-18.851563 15.28125-34.132813 34.132812-34.132813 18.851563 0 34.132813 15.28125 34.132813 34.132813 0 18.851562-15.28125 34.132812-34.132813 34.132812zm0 0"/><path d="m366.9375 384c14.140625 0 25.601562-11.460938 25.601562-25.601562 0-14.136719-11.460937-25.597657-25.601562-25.597657h-85.332031c-12.453125-.023437-23.109375 8.9375-25.21875 21.210938-2.109375 12.273437 4.941406 24.28125 16.6875 28.417969v112.503906c0 9.425781 7.640625 17.066406 17.066406 17.066406h17.066406c9.425781 0 17.066407-7.640625 17.066407-17.066406v-110.933594zm-85.332031-34.132812h85.332031c4.714844 0 8.535156 3.820312 8.535156 8.53125 0 4.714843-3.820312 8.535156-8.535156 8.535156h-85.332031c-4.710938 0-8.53125-3.820313-8.53125-8.535156 0-4.710938 3.820312-8.53125 8.53125-8.53125zm25.601562 145.066406h-17.066406v-110.933594h17.066406zm0 0"/><path d="m494.9375 298.667969c-4.710938 0-8.53125 3.820312-8.53125 8.53125v110.933593c0 4.714844-3.820312 8.535157-8.535156 8.535157h-17.285156c5.644531-7.34375 8.722656-16.339844 8.753906-25.601563v-76.800781c0-14.136719-11.460938-25.597656-25.601563-25.597656h-17.066406c-14.136719 0-25.597656 11.460937-25.597656 25.597656v68.269531h-25.601563c-23.550781.027344-42.636718 19.113282-42.667968 42.664063v51.199219c-.050782 6.757812 2.640624 13.246093 7.460937 17.980468 4.761719 4.894532 11.308594 7.648438 18.140625 7.621094.746094 0 1.488281-.035156 2.226562-.101562 13.441407-1.480469 23.558594-12.933594 23.375-26.453126v-41.710937h17.066407v59.730469c0 4.714844 3.820312 8.535156 8.53125 8.535156 4.714843 0 8.535156-3.820312 8.535156-8.535156v-59.730469h42.664063v59.730469c0 4.714844 3.820312 8.535156 8.535156 8.535156 4.710937 0 8.53125-3.820312 8.53125-8.535156v-59.730469c14.140625 0 25.601562-11.460937 25.601562-25.601563v-110.933593c0-4.710938-3.820312-8.53125-8.535156-8.53125zm-93.863281 128h-17.066407c-9.425781 0-17.070312 7.640625-17.070312 17.066406v41.710937c.1875 4.664063-3.136719 8.738282-7.746094 9.488282-2.542968.210937-5.050781-.730469-6.828125-2.558594-1.621093-1.5625-2.523437-3.726562-2.492187-5.976562v-51.199219c0-14.136719 11.464844-25.597657 25.601562-25.597657h25.601563c9.425781 0 17.066406-7.640624 17.066406-17.066406v-68.269531c0-4.710937 3.820313-8.53125 8.53125-8.53125h17.066406c4.714844 0 8.535157 3.820313 8.535157 8.53125v76.800781c0 14.140625-11.460938 25.601563-25.601563 25.601563zm0 0"/><path d="m238.9375 34.132812c-4.710938 0-8.53125 3.820313-8.53125 8.535157v27.628906l-27.578125-33.101563c-2.304687-2.757812-6.085937-3.78125-9.464844-2.554687-3.378906 1.222656-5.625 4.433594-5.625 8.027344v51.199219c0 4.710937 3.820313 8.53125 8.535157 8.53125 4.710937 0 8.53125-3.820313 8.53125-8.53125v-27.632813l27.582031 33.101563c2.300781 2.761718 6.082031 3.78125 9.460937 2.558593 3.378906-1.226562 5.628906-4.433593 5.625-8.027343v-51.199219c0-4.714844-3.820312-8.535157-8.535156-8.535157zm0 0"/><path d="m307.207031 51.199219c4.710938 0 8.53125-3.820313 8.53125-8.53125 0-4.714844-3.820312-8.535157-8.53125-8.535157h-34.132812c-4.714844 0-8.535157 3.820313-8.535157 8.535157v51.199219c0 4.710937 3.820313 8.53125 8.535157 8.53125h34.132812c4.710938 0 8.53125-3.820313 8.53125-8.53125 0-4.714844-3.820312-8.535157-8.53125-8.535157h-25.601562v-8.53125h25.601562c4.710938 0 8.53125-3.820312 8.53125-8.535156 0-4.710937-3.820312-8.53125-8.53125-8.53125h-25.601562v-8.535156zm0 0"/><path d="m380.207031 35.566406c-1.882812-1.253906-4.1875-1.710937-6.40625-1.269531-2.21875.445313-4.171875 1.75-5.429687 3.632813l-9.964844 14.976562-9.96875-14.976562c-1.691406-2.535157-4.605469-3.976563-7.648438-3.78125-3.042968.199218-5.75 2.003906-7.101562 4.738281s-1.140625 5.980469.550781 8.515625l13.929688 20.863281-13.910157 20.863281c-2.617187 3.921875-1.558593 9.222656 2.363282 11.835938 3.921875 2.617187 9.21875 1.558594 11.835937-2.363282l9.949219-14.976562 9.964844 14.953125c2.617187 3.921875 7.917968 4.976563 11.835937 2.363281 3.921875-2.617187 4.980469-7.914062 2.367188-11.835937l-13.929688-20.839844 13.910157-20.863281c2.621093-3.917969 1.570312-9.214844-2.347657-11.835938zm0 0"/><path d="m452.273438 34.132812h-51.199219c-4.714844 0-8.535157 3.820313-8.535157 8.535157 0 4.710937 3.820313 8.53125 8.535157 8.53125h17.066406v42.667969c0 4.710937 3.820313 8.53125 8.53125 8.53125 4.714844 0 8.535156-3.820313 8.535156-8.53125v-42.667969h17.066407c4.710937 0 8.53125-3.820313 8.53125-8.53125 0-4.714844-3.820313-8.535157-8.53125-8.535157zm0 0"/><path d="m494.9375 34.132812c0-18.851562-15.28125-34.132812-34.132812-34.132812h-273.066407c-18.851562 0-34.132812 15.28125-34.132812 34.132812v68.265626c0 18.851562 15.28125 34.136718 34.132812 34.136718h175.371094l24.855469 27.980469c3.207031 3.890625 7.980468 6.144531 13.023437 6.152344 2.011719-.003907 4.003907-.355469 5.894531-1.042969 6.78125-2.402344 11.296876-8.832031 11.257813-16.023438v-17.066406h42.664063c18.851562 0 34.132812-15.285156 34.132812-34.136718zm-17.066406 68.265626c0 9.425781-7.640625 17.066406-17.066406 17.066406h-46.933594c-7.066406 0-12.796875 5.734375-12.796875 12.800781l-.179688 21.121094-26.273437-29.652344c-2.4375-2.714844-5.914063-4.265625-9.558594-4.269531h-177.324219c-9.425781 0-17.066406-7.640625-17.066406-17.066406v-68.265626c0-9.425781 7.640625-17.066406 17.066406-17.066406h273.066407c9.425781 0 17.066406 7.640625 17.066406 17.066406zm0 0"/></svg>